<mxfile host="Electron" agent="Mozilla/5.0 (X11; Linux x86_64) AppleWebKit/537.36 (KHTML, like Gecko) draw.io/24.7.5 Chrome/126.0.6478.183 Electron/31.3.0 Safari/537.36" version="24.7.5">
  <diagram name="Page-1" id="9FZNOQnzXt0f5AF8dbsq">
    <mxGraphModel dx="1434" dy="870" grid="1" gridSize="10" guides="1" tooltips="1" connect="1" arrows="1" fold="1" page="1" pageScale="1" pageWidth="1100" pageHeight="850" math="0" shadow="0">
      <root>
        <mxCell id="0" />
        <mxCell id="1" parent="0" />
        <mxCell id="9l0HJUpUsv7TC3UWWbOg-2" value="VPC" style="points=[[0,0],[0.25,0],[0.5,0],[0.75,0],[1,0],[1,0.25],[1,0.5],[1,0.75],[1,1],[0.75,1],[0.5,1],[0.25,1],[0,1],[0,0.75],[0,0.5],[0,0.25]];outlineConnect=0;gradientColor=none;html=1;whiteSpace=wrap;fontSize=12;fontStyle=0;container=1;pointerEvents=0;collapsible=0;recursiveResize=0;shape=mxgraph.aws4.group;grIcon=mxgraph.aws4.group_vpc2;strokeColor=#8C4FFF;fillColor=none;verticalAlign=top;align=left;spacingLeft=30;fontColor=#AAB7B8;dashed=0;" parent="1" vertex="1">
          <mxGeometry x="20" y="150" width="1060" height="570" as="geometry" />
        </mxCell>
        <mxCell id="9l0HJUpUsv7TC3UWWbOg-7" value="&lt;b style=&quot;font-size: 120px;&quot;&gt;&lt;font style=&quot;font-size: 120px;&quot;&gt;192.168.100.1&lt;/font&gt;&lt;/b&gt;" style="text;html=1;align=center;verticalAlign=middle;whiteSpace=wrap;rounded=0;fontColor=#4D4D4D;fontSize=120;" parent="9l0HJUpUsv7TC3UWWbOg-2" vertex="1">
          <mxGeometry x="90" y="100" width="855" height="130" as="geometry" />
        </mxCell>
        <mxCell id="9l0HJUpUsv7TC3UWWbOg-8" value="&lt;b style=&quot;font-size: 46px;&quot;&gt;&lt;font style=&quot;font-size: 46px;&quot;&gt;&lt;u style=&quot;font-size: 46px;&quot;&gt;1st octet&lt;/u&gt;&lt;/font&gt;&lt;/b&gt;" style="text;html=1;align=center;verticalAlign=middle;whiteSpace=wrap;rounded=0;fontColor=#4D4D4D;fontSize=46;" parent="9l0HJUpUsv7TC3UWWbOg-2" vertex="1">
          <mxGeometry x="7" y="80" width="450" height="30" as="geometry" />
        </mxCell>
        <mxCell id="9l0HJUpUsv7TC3UWWbOg-9" value="&lt;b style=&quot;font-size: 46px;&quot;&gt;&lt;font style=&quot;font-size: 46px;&quot;&gt;&lt;u style=&quot;font-size: 46px;&quot;&gt;2nd octet&lt;/u&gt;&lt;/font&gt;&lt;/b&gt;" style="text;html=1;align=center;verticalAlign=middle;whiteSpace=wrap;rounded=0;fontColor=#4D4D4D;fontSize=46;" parent="9l0HJUpUsv7TC3UWWbOg-2" vertex="1">
          <mxGeometry x="250" y="80" width="450" height="30" as="geometry" />
        </mxCell>
        <mxCell id="9l0HJUpUsv7TC3UWWbOg-10" value="&lt;b style=&quot;font-size: 46px;&quot;&gt;&lt;font style=&quot;font-size: 46px;&quot;&gt;&lt;u style=&quot;font-size: 46px;&quot;&gt;3rd octet&lt;/u&gt;&lt;/font&gt;&lt;/b&gt;" style="text;html=1;align=center;verticalAlign=middle;whiteSpace=wrap;rounded=0;fontColor=#4D4D4D;fontSize=46;" parent="9l0HJUpUsv7TC3UWWbOg-2" vertex="1">
          <mxGeometry x="477" y="80" width="450" height="30" as="geometry" />
        </mxCell>
        <mxCell id="9l0HJUpUsv7TC3UWWbOg-11" value="&lt;b style=&quot;font-size: 46px;&quot;&gt;&lt;font style=&quot;font-size: 46px;&quot;&gt;&lt;u style=&quot;font-size: 46px;&quot;&gt;4th octet&lt;/u&gt;&lt;/font&gt;&lt;/b&gt;" style="text;html=1;align=center;verticalAlign=middle;whiteSpace=wrap;rounded=0;fontColor=#4D4D4D;fontSize=46;" parent="9l0HJUpUsv7TC3UWWbOg-2" vertex="1">
          <mxGeometry x="709" y="80" width="450" height="30" as="geometry" />
        </mxCell>
        <mxCell id="9l0HJUpUsv7TC3UWWbOg-12" value="" style="verticalLabelPosition=bottom;shadow=0;dashed=0;align=center;html=1;verticalAlign=top;strokeWidth=1;shape=mxgraph.mockup.markup.curlyBrace;whiteSpace=wrap;strokeColor=#999999;" parent="9l0HJUpUsv7TC3UWWbOg-2" vertex="1">
          <mxGeometry x="127" y="240" width="193" height="20" as="geometry" />
        </mxCell>
        <mxCell id="9l0HJUpUsv7TC3UWWbOg-13" value="&lt;b&gt;&lt;font style=&quot;font-size: 32px;&quot;&gt;1 1 0 0 0 0 0 0&lt;/font&gt;&lt;/b&gt;" style="text;html=1;align=center;verticalAlign=middle;whiteSpace=wrap;rounded=0;fontColor=#4D4D4D;" parent="9l0HJUpUsv7TC3UWWbOg-2" vertex="1">
          <mxGeometry x="-2.5" y="270" width="450" height="30" as="geometry" />
        </mxCell>
        <mxCell id="9l0HJUpUsv7TC3UWWbOg-14" value="" style="verticalLabelPosition=bottom;shadow=0;dashed=0;align=center;html=1;verticalAlign=top;strokeWidth=1;shape=mxgraph.mockup.markup.curlyBrace;whiteSpace=wrap;strokeColor=#999999;direction=west;" parent="9l0HJUpUsv7TC3UWWbOg-2" vertex="1">
          <mxGeometry x="119" y="294" width="23" height="20" as="geometry" />
        </mxCell>
        <mxCell id="9l0HJUpUsv7TC3UWWbOg-15" value="" style="verticalLabelPosition=bottom;shadow=0;dashed=0;align=center;html=1;verticalAlign=top;strokeWidth=1;shape=mxgraph.mockup.markup.curlyBrace;whiteSpace=wrap;strokeColor=#999999;direction=west;" parent="9l0HJUpUsv7TC3UWWbOg-2" vertex="1">
          <mxGeometry x="144" y="294" width="23" height="20" as="geometry" />
        </mxCell>
        <mxCell id="9l0HJUpUsv7TC3UWWbOg-16" value="" style="verticalLabelPosition=bottom;shadow=0;dashed=0;align=center;html=1;verticalAlign=top;strokeWidth=1;shape=mxgraph.mockup.markup.curlyBrace;whiteSpace=wrap;strokeColor=#999999;direction=west;" parent="9l0HJUpUsv7TC3UWWbOg-2" vertex="1">
          <mxGeometry x="171" y="294" width="23" height="20" as="geometry" />
        </mxCell>
        <mxCell id="9l0HJUpUsv7TC3UWWbOg-17" value="" style="verticalLabelPosition=bottom;shadow=0;dashed=0;align=center;html=1;verticalAlign=top;strokeWidth=1;shape=mxgraph.mockup.markup.curlyBrace;whiteSpace=wrap;strokeColor=#999999;direction=west;" parent="9l0HJUpUsv7TC3UWWbOg-2" vertex="1">
          <mxGeometry x="197" y="294" width="23" height="20" as="geometry" />
        </mxCell>
        <mxCell id="9l0HJUpUsv7TC3UWWbOg-18" value="" style="verticalLabelPosition=bottom;shadow=0;dashed=0;align=center;html=1;verticalAlign=top;strokeWidth=1;shape=mxgraph.mockup.markup.curlyBrace;whiteSpace=wrap;strokeColor=#999999;direction=west;" parent="9l0HJUpUsv7TC3UWWbOg-2" vertex="1">
          <mxGeometry x="222" y="294" width="23" height="20" as="geometry" />
        </mxCell>
        <mxCell id="9l0HJUpUsv7TC3UWWbOg-19" value="" style="verticalLabelPosition=bottom;shadow=0;dashed=0;align=center;html=1;verticalAlign=top;strokeWidth=1;shape=mxgraph.mockup.markup.curlyBrace;whiteSpace=wrap;strokeColor=#999999;direction=west;" parent="9l0HJUpUsv7TC3UWWbOg-2" vertex="1">
          <mxGeometry x="250" y="294" width="23" height="20" as="geometry" />
        </mxCell>
        <mxCell id="9l0HJUpUsv7TC3UWWbOg-20" value="" style="verticalLabelPosition=bottom;shadow=0;dashed=0;align=center;html=1;verticalAlign=top;strokeWidth=1;shape=mxgraph.mockup.markup.curlyBrace;whiteSpace=wrap;strokeColor=#999999;direction=west;" parent="9l0HJUpUsv7TC3UWWbOg-2" vertex="1">
          <mxGeometry x="276" y="294" width="23" height="20" as="geometry" />
        </mxCell>
        <mxCell id="9l0HJUpUsv7TC3UWWbOg-21" value="" style="verticalLabelPosition=bottom;shadow=0;dashed=0;align=center;html=1;verticalAlign=top;strokeWidth=1;shape=mxgraph.mockup.markup.curlyBrace;whiteSpace=wrap;strokeColor=#999999;direction=west;" parent="9l0HJUpUsv7TC3UWWbOg-2" vertex="1">
          <mxGeometry x="303" y="293" width="23" height="20" as="geometry" />
        </mxCell>
        <mxCell id="9l0HJUpUsv7TC3UWWbOg-23" value="" style="verticalLabelPosition=bottom;shadow=0;dashed=0;align=center;html=1;verticalAlign=top;strokeWidth=1;shape=mxgraph.mockup.markup.curlyBrace;whiteSpace=wrap;strokeColor=#999999;direction=west;" parent="9l0HJUpUsv7TC3UWWbOg-2" vertex="1">
          <mxGeometry x="126" y="330" width="193" height="20" as="geometry" />
        </mxCell>
        <mxCell id="9l0HJUpUsv7TC3UWWbOg-24" value="&lt;b&gt;&lt;font style=&quot;font-size: 32px;&quot;&gt;Octet = 8 bits&lt;/font&gt;&lt;/b&gt;" style="text;html=1;align=center;verticalAlign=middle;whiteSpace=wrap;rounded=0;fontColor=#4D4D4D;" parent="9l0HJUpUsv7TC3UWWbOg-2" vertex="1">
          <mxGeometry x="7" y="370" width="450" height="30" as="geometry" />
        </mxCell>
        <mxCell id="9l0HJUpUsv7TC3UWWbOg-25" value="" style="verticalLabelPosition=bottom;shadow=0;dashed=0;align=center;html=1;verticalAlign=top;strokeWidth=1;shape=mxgraph.mockup.markup.curlyBrace;whiteSpace=wrap;strokeColor=#999999;" parent="9l0HJUpUsv7TC3UWWbOg-2" vertex="1">
          <mxGeometry x="375" y="240" width="193" height="20" as="geometry" />
        </mxCell>
        <mxCell id="9l0HJUpUsv7TC3UWWbOg-26" value="" style="verticalLabelPosition=bottom;shadow=0;dashed=0;align=center;html=1;verticalAlign=top;strokeWidth=1;shape=mxgraph.mockup.markup.curlyBrace;whiteSpace=wrap;strokeColor=#999999;direction=west;" parent="9l0HJUpUsv7TC3UWWbOg-2" vertex="1">
          <mxGeometry x="367" y="294" width="23" height="20" as="geometry" />
        </mxCell>
        <mxCell id="9l0HJUpUsv7TC3UWWbOg-27" value="" style="verticalLabelPosition=bottom;shadow=0;dashed=0;align=center;html=1;verticalAlign=top;strokeWidth=1;shape=mxgraph.mockup.markup.curlyBrace;whiteSpace=wrap;strokeColor=#999999;direction=west;" parent="9l0HJUpUsv7TC3UWWbOg-2" vertex="1">
          <mxGeometry x="392" y="294" width="23" height="20" as="geometry" />
        </mxCell>
        <mxCell id="9l0HJUpUsv7TC3UWWbOg-28" value="" style="verticalLabelPosition=bottom;shadow=0;dashed=0;align=center;html=1;verticalAlign=top;strokeWidth=1;shape=mxgraph.mockup.markup.curlyBrace;whiteSpace=wrap;strokeColor=#999999;direction=west;" parent="9l0HJUpUsv7TC3UWWbOg-2" vertex="1">
          <mxGeometry x="419" y="294" width="23" height="20" as="geometry" />
        </mxCell>
        <mxCell id="9l0HJUpUsv7TC3UWWbOg-29" value="" style="verticalLabelPosition=bottom;shadow=0;dashed=0;align=center;html=1;verticalAlign=top;strokeWidth=1;shape=mxgraph.mockup.markup.curlyBrace;whiteSpace=wrap;strokeColor=#999999;direction=west;" parent="9l0HJUpUsv7TC3UWWbOg-2" vertex="1">
          <mxGeometry x="445" y="294" width="23" height="20" as="geometry" />
        </mxCell>
        <mxCell id="9l0HJUpUsv7TC3UWWbOg-30" value="" style="verticalLabelPosition=bottom;shadow=0;dashed=0;align=center;html=1;verticalAlign=top;strokeWidth=1;shape=mxgraph.mockup.markup.curlyBrace;whiteSpace=wrap;strokeColor=#999999;direction=west;" parent="9l0HJUpUsv7TC3UWWbOg-2" vertex="1">
          <mxGeometry x="470" y="294" width="23" height="20" as="geometry" />
        </mxCell>
        <mxCell id="9l0HJUpUsv7TC3UWWbOg-31" value="" style="verticalLabelPosition=bottom;shadow=0;dashed=0;align=center;html=1;verticalAlign=top;strokeWidth=1;shape=mxgraph.mockup.markup.curlyBrace;whiteSpace=wrap;strokeColor=#999999;direction=west;" parent="9l0HJUpUsv7TC3UWWbOg-2" vertex="1">
          <mxGeometry x="498" y="298" width="23" height="14" as="geometry" />
        </mxCell>
        <mxCell id="9l0HJUpUsv7TC3UWWbOg-32" value="" style="verticalLabelPosition=bottom;shadow=0;dashed=0;align=center;html=1;verticalAlign=top;strokeWidth=1;shape=mxgraph.mockup.markup.curlyBrace;whiteSpace=wrap;strokeColor=#999999;direction=west;" parent="9l0HJUpUsv7TC3UWWbOg-2" vertex="1">
          <mxGeometry x="524" y="294" width="23" height="20" as="geometry" />
        </mxCell>
        <mxCell id="9l0HJUpUsv7TC3UWWbOg-33" value="" style="verticalLabelPosition=bottom;shadow=0;dashed=0;align=center;html=1;verticalAlign=top;strokeWidth=1;shape=mxgraph.mockup.markup.curlyBrace;whiteSpace=wrap;strokeColor=#999999;direction=west;" parent="9l0HJUpUsv7TC3UWWbOg-2" vertex="1">
          <mxGeometry x="551" y="293" width="23" height="20" as="geometry" />
        </mxCell>
        <mxCell id="9l0HJUpUsv7TC3UWWbOg-34" value="" style="verticalLabelPosition=bottom;shadow=0;dashed=0;align=center;html=1;verticalAlign=top;strokeWidth=1;shape=mxgraph.mockup.markup.curlyBrace;whiteSpace=wrap;strokeColor=#999999;direction=west;" parent="9l0HJUpUsv7TC3UWWbOg-2" vertex="1">
          <mxGeometry x="374" y="330" width="193" height="20" as="geometry" />
        </mxCell>
        <mxCell id="9l0HJUpUsv7TC3UWWbOg-35" value="&lt;b&gt;&lt;font style=&quot;font-size: 32px;&quot;&gt;1 0 1 0 1 0 0 0&lt;/font&gt;&lt;/b&gt;" style="text;html=1;align=center;verticalAlign=middle;whiteSpace=wrap;rounded=0;fontColor=#4D4D4D;" parent="9l0HJUpUsv7TC3UWWbOg-2" vertex="1">
          <mxGeometry x="249" y="273" width="450" height="30" as="geometry" />
        </mxCell>
        <mxCell id="9l0HJUpUsv7TC3UWWbOg-36" value="&lt;b&gt;&lt;font style=&quot;font-size: 32px;&quot;&gt;Octet = 8 bits&lt;/font&gt;&lt;/b&gt;" style="text;html=1;align=center;verticalAlign=middle;whiteSpace=wrap;rounded=0;fontColor=#4D4D4D;" parent="9l0HJUpUsv7TC3UWWbOg-2" vertex="1">
          <mxGeometry x="253" y="370" width="450" height="30" as="geometry" />
        </mxCell>
        <mxCell id="9l0HJUpUsv7TC3UWWbOg-37" value="" style="verticalLabelPosition=bottom;shadow=0;dashed=0;align=center;html=1;verticalAlign=top;strokeWidth=1;shape=mxgraph.mockup.markup.curlyBrace;whiteSpace=wrap;strokeColor=#999999;" parent="9l0HJUpUsv7TC3UWWbOg-2" vertex="1">
          <mxGeometry x="608" y="240" width="193" height="20" as="geometry" />
        </mxCell>
        <mxCell id="9l0HJUpUsv7TC3UWWbOg-38" value="" style="verticalLabelPosition=bottom;shadow=0;dashed=0;align=center;html=1;verticalAlign=top;strokeWidth=1;shape=mxgraph.mockup.markup.curlyBrace;whiteSpace=wrap;strokeColor=#999999;direction=west;" parent="9l0HJUpUsv7TC3UWWbOg-2" vertex="1">
          <mxGeometry x="600" y="294" width="23" height="20" as="geometry" />
        </mxCell>
        <mxCell id="9l0HJUpUsv7TC3UWWbOg-39" value="" style="verticalLabelPosition=bottom;shadow=0;dashed=0;align=center;html=1;verticalAlign=top;strokeWidth=1;shape=mxgraph.mockup.markup.curlyBrace;whiteSpace=wrap;strokeColor=#999999;direction=west;" parent="9l0HJUpUsv7TC3UWWbOg-2" vertex="1">
          <mxGeometry x="625" y="294" width="23" height="20" as="geometry" />
        </mxCell>
        <mxCell id="9l0HJUpUsv7TC3UWWbOg-40" value="" style="verticalLabelPosition=bottom;shadow=0;dashed=0;align=center;html=1;verticalAlign=top;strokeWidth=1;shape=mxgraph.mockup.markup.curlyBrace;whiteSpace=wrap;strokeColor=#999999;direction=west;" parent="9l0HJUpUsv7TC3UWWbOg-2" vertex="1">
          <mxGeometry x="652" y="294" width="23" height="20" as="geometry" />
        </mxCell>
        <mxCell id="9l0HJUpUsv7TC3UWWbOg-41" value="" style="verticalLabelPosition=bottom;shadow=0;dashed=0;align=center;html=1;verticalAlign=top;strokeWidth=1;shape=mxgraph.mockup.markup.curlyBrace;whiteSpace=wrap;strokeColor=#999999;direction=west;" parent="9l0HJUpUsv7TC3UWWbOg-2" vertex="1">
          <mxGeometry x="678" y="294" width="23" height="20" as="geometry" />
        </mxCell>
        <mxCell id="9l0HJUpUsv7TC3UWWbOg-42" value="" style="verticalLabelPosition=bottom;shadow=0;dashed=0;align=center;html=1;verticalAlign=top;strokeWidth=1;shape=mxgraph.mockup.markup.curlyBrace;whiteSpace=wrap;strokeColor=#999999;direction=west;" parent="9l0HJUpUsv7TC3UWWbOg-2" vertex="1">
          <mxGeometry x="703" y="294" width="23" height="20" as="geometry" />
        </mxCell>
        <mxCell id="9l0HJUpUsv7TC3UWWbOg-43" value="" style="verticalLabelPosition=bottom;shadow=0;dashed=0;align=center;html=1;verticalAlign=top;strokeWidth=1;shape=mxgraph.mockup.markup.curlyBrace;whiteSpace=wrap;strokeColor=#999999;direction=west;" parent="9l0HJUpUsv7TC3UWWbOg-2" vertex="1">
          <mxGeometry x="731" y="297" width="23" height="14" as="geometry" />
        </mxCell>
        <mxCell id="9l0HJUpUsv7TC3UWWbOg-44" value="" style="verticalLabelPosition=bottom;shadow=0;dashed=0;align=center;html=1;verticalAlign=top;strokeWidth=1;shape=mxgraph.mockup.markup.curlyBrace;whiteSpace=wrap;strokeColor=#999999;direction=west;" parent="9l0HJUpUsv7TC3UWWbOg-2" vertex="1">
          <mxGeometry x="757" y="294" width="23" height="20" as="geometry" />
        </mxCell>
        <mxCell id="9l0HJUpUsv7TC3UWWbOg-45" value="" style="verticalLabelPosition=bottom;shadow=0;dashed=0;align=center;html=1;verticalAlign=top;strokeWidth=1;shape=mxgraph.mockup.markup.curlyBrace;whiteSpace=wrap;strokeColor=#999999;direction=west;" parent="9l0HJUpUsv7TC3UWWbOg-2" vertex="1">
          <mxGeometry x="784" y="293" width="23" height="20" as="geometry" />
        </mxCell>
        <mxCell id="9l0HJUpUsv7TC3UWWbOg-46" value="" style="verticalLabelPosition=bottom;shadow=0;dashed=0;align=center;html=1;verticalAlign=top;strokeWidth=1;shape=mxgraph.mockup.markup.curlyBrace;whiteSpace=wrap;strokeColor=#999999;direction=west;" parent="9l0HJUpUsv7TC3UWWbOg-2" vertex="1">
          <mxGeometry x="607" y="330" width="193" height="20" as="geometry" />
        </mxCell>
        <mxCell id="9l0HJUpUsv7TC3UWWbOg-47" value="" style="verticalLabelPosition=bottom;shadow=0;dashed=0;align=center;html=1;verticalAlign=top;strokeWidth=1;shape=mxgraph.mockup.markup.curlyBrace;whiteSpace=wrap;strokeColor=#999999;" parent="9l0HJUpUsv7TC3UWWbOg-2" vertex="1">
          <mxGeometry x="837" y="240" width="193" height="20" as="geometry" />
        </mxCell>
        <mxCell id="9l0HJUpUsv7TC3UWWbOg-48" value="" style="verticalLabelPosition=bottom;shadow=0;dashed=0;align=center;html=1;verticalAlign=top;strokeWidth=1;shape=mxgraph.mockup.markup.curlyBrace;whiteSpace=wrap;strokeColor=#999999;direction=west;" parent="9l0HJUpUsv7TC3UWWbOg-2" vertex="1">
          <mxGeometry x="849" y="294" width="23" height="20" as="geometry" />
        </mxCell>
        <mxCell id="9l0HJUpUsv7TC3UWWbOg-49" value="" style="verticalLabelPosition=bottom;shadow=0;dashed=0;align=center;html=1;verticalAlign=top;strokeWidth=1;shape=mxgraph.mockup.markup.curlyBrace;whiteSpace=wrap;strokeColor=#999999;direction=west;" parent="9l0HJUpUsv7TC3UWWbOg-2" vertex="1">
          <mxGeometry x="876" y="294" width="23" height="20" as="geometry" />
        </mxCell>
        <mxCell id="9l0HJUpUsv7TC3UWWbOg-50" value="" style="verticalLabelPosition=bottom;shadow=0;dashed=0;align=center;html=1;verticalAlign=top;strokeWidth=1;shape=mxgraph.mockup.markup.curlyBrace;whiteSpace=wrap;strokeColor=#999999;direction=west;" parent="9l0HJUpUsv7TC3UWWbOg-2" vertex="1">
          <mxGeometry x="902" y="294" width="23" height="20" as="geometry" />
        </mxCell>
        <mxCell id="9l0HJUpUsv7TC3UWWbOg-51" value="" style="verticalLabelPosition=bottom;shadow=0;dashed=0;align=center;html=1;verticalAlign=top;strokeWidth=1;shape=mxgraph.mockup.markup.curlyBrace;whiteSpace=wrap;strokeColor=#999999;direction=west;" parent="9l0HJUpUsv7TC3UWWbOg-2" vertex="1">
          <mxGeometry x="927" y="294" width="23" height="20" as="geometry" />
        </mxCell>
        <mxCell id="9l0HJUpUsv7TC3UWWbOg-52" value="" style="verticalLabelPosition=bottom;shadow=0;dashed=0;align=center;html=1;verticalAlign=top;strokeWidth=1;shape=mxgraph.mockup.markup.curlyBrace;whiteSpace=wrap;strokeColor=#999999;direction=west;" parent="9l0HJUpUsv7TC3UWWbOg-2" vertex="1">
          <mxGeometry x="955" y="297" width="23" height="14" as="geometry" />
        </mxCell>
        <mxCell id="9l0HJUpUsv7TC3UWWbOg-53" value="" style="verticalLabelPosition=bottom;shadow=0;dashed=0;align=center;html=1;verticalAlign=top;strokeWidth=1;shape=mxgraph.mockup.markup.curlyBrace;whiteSpace=wrap;strokeColor=#999999;direction=west;" parent="9l0HJUpUsv7TC3UWWbOg-2" vertex="1">
          <mxGeometry x="981" y="294" width="23" height="20" as="geometry" />
        </mxCell>
        <mxCell id="9l0HJUpUsv7TC3UWWbOg-54" value="" style="verticalLabelPosition=bottom;shadow=0;dashed=0;align=center;html=1;verticalAlign=top;strokeWidth=1;shape=mxgraph.mockup.markup.curlyBrace;whiteSpace=wrap;strokeColor=#999999;direction=west;" parent="9l0HJUpUsv7TC3UWWbOg-2" vertex="1">
          <mxGeometry x="1008" y="293" width="23" height="20" as="geometry" />
        </mxCell>
        <mxCell id="9l0HJUpUsv7TC3UWWbOg-55" value="" style="verticalLabelPosition=bottom;shadow=0;dashed=0;align=center;html=1;verticalAlign=top;strokeWidth=1;shape=mxgraph.mockup.markup.curlyBrace;whiteSpace=wrap;strokeColor=#999999;direction=west;" parent="9l0HJUpUsv7TC3UWWbOg-2" vertex="1">
          <mxGeometry x="836" y="330" width="193" height="20" as="geometry" />
        </mxCell>
        <mxCell id="9l0HJUpUsv7TC3UWWbOg-56" value="&lt;b&gt;&lt;font style=&quot;font-size: 32px;&quot;&gt;0 1 1 0 0 1 0 0&lt;/font&gt;&lt;/b&gt;" style="text;html=1;align=center;verticalAlign=middle;whiteSpace=wrap;rounded=0;fontColor=#4D4D4D;" parent="9l0HJUpUsv7TC3UWWbOg-2" vertex="1">
          <mxGeometry x="571" y="273" width="262" height="30" as="geometry" />
        </mxCell>
        <mxCell id="9l0HJUpUsv7TC3UWWbOg-57" value="&lt;b&gt;&lt;font style=&quot;font-size: 32px;&quot;&gt;0 0 0 0 0 0 0 1&lt;/font&gt;&lt;/b&gt;" style="text;html=1;align=center;verticalAlign=middle;whiteSpace=wrap;rounded=0;fontColor=#4D4D4D;" parent="9l0HJUpUsv7TC3UWWbOg-2" vertex="1">
          <mxGeometry x="701" y="270" width="450" height="30" as="geometry" />
        </mxCell>
        <mxCell id="9l0HJUpUsv7TC3UWWbOg-58" value="" style="verticalLabelPosition=bottom;shadow=0;dashed=0;align=center;html=1;verticalAlign=top;strokeWidth=1;shape=mxgraph.mockup.markup.curlyBrace;whiteSpace=wrap;strokeColor=#999999;direction=west;" parent="9l0HJUpUsv7TC3UWWbOg-2" vertex="1">
          <mxGeometry x="826" y="293" width="23" height="20" as="geometry" />
        </mxCell>
        <mxCell id="9l0HJUpUsv7TC3UWWbOg-59" value="&lt;b&gt;&lt;font style=&quot;font-size: 32px;&quot;&gt;Octet = 8 bits&lt;/font&gt;&lt;/b&gt;" style="text;html=1;align=center;verticalAlign=middle;whiteSpace=wrap;rounded=0;fontColor=#4D4D4D;" parent="9l0HJUpUsv7TC3UWWbOg-2" vertex="1">
          <mxGeometry x="479.5" y="370" width="450" height="30" as="geometry" />
        </mxCell>
        <mxCell id="9l0HJUpUsv7TC3UWWbOg-60" value="&lt;b&gt;&lt;font style=&quot;font-size: 32px;&quot;&gt;Octet = 8 bits&lt;/font&gt;&lt;/b&gt;" style="text;html=1;align=center;verticalAlign=middle;whiteSpace=wrap;rounded=0;fontColor=#4D4D4D;" parent="9l0HJUpUsv7TC3UWWbOg-2" vertex="1">
          <mxGeometry x="713.5" y="370" width="450" height="30" as="geometry" />
        </mxCell>
        <mxCell id="9l0HJUpUsv7TC3UWWbOg-62" value="" style="verticalLabelPosition=bottom;shadow=0;dashed=0;align=center;html=1;verticalAlign=top;strokeWidth=1;shape=mxgraph.mockup.markup.curlyBrace;whiteSpace=wrap;strokeColor=#999999;direction=west;" parent="9l0HJUpUsv7TC3UWWbOg-2" vertex="1">
          <mxGeometry x="120" y="430" width="920" height="20" as="geometry" />
        </mxCell>
        <mxCell id="9l0HJUpUsv7TC3UWWbOg-63" value="&lt;b&gt;&lt;font style=&quot;font-size: 30px;&quot;&gt;IP Address Total 32 Bits&lt;/font&gt;&lt;/b&gt;" style="text;html=1;align=center;verticalAlign=middle;whiteSpace=wrap;rounded=0;fontColor=#4D4D4D;" parent="9l0HJUpUsv7TC3UWWbOg-2" vertex="1">
          <mxGeometry x="357" y="460" width="450" height="30" as="geometry" />
        </mxCell>
        <mxCell id="9l0HJUpUsv7TC3UWWbOg-64" value="&lt;b&gt;&lt;font style=&quot;font-size: 30px;&quot;&gt;8+8+8+8 = 32 Bits&lt;/font&gt;&lt;/b&gt;" style="text;html=1;align=center;verticalAlign=middle;whiteSpace=wrap;rounded=0;fontColor=#4D4D4D;" parent="9l0HJUpUsv7TC3UWWbOg-2" vertex="1">
          <mxGeometry x="357" y="490" width="450" height="30" as="geometry" />
        </mxCell>
        <mxCell id="9l0HJUpUsv7TC3UWWbOg-65" value="&lt;b style=&quot;font-size: 10px;&quot;&gt;&lt;font style=&quot;font-size: 10px;&quot;&gt;Bit&lt;/font&gt;&lt;/b&gt;" style="text;html=1;align=center;verticalAlign=middle;whiteSpace=wrap;rounded=0;fontColor=#A1A1A1;fontSize=10;" parent="9l0HJUpUsv7TC3UWWbOg-2" vertex="1">
          <mxGeometry x="789" y="297" width="62" height="30" as="geometry" />
        </mxCell>
        <mxCell id="9l0HJUpUsv7TC3UWWbOg-66" value="&lt;b style=&quot;font-size: 10px;&quot;&gt;&lt;font style=&quot;font-size: 10px;&quot;&gt;Bit&lt;/font&gt;&lt;/b&gt;" style="text;html=1;align=center;verticalAlign=middle;whiteSpace=wrap;rounded=0;fontColor=#A1A1A1;fontSize=10;" parent="9l0HJUpUsv7TC3UWWbOg-2" vertex="1">
          <mxGeometry x="561" y="293" width="62" height="30" as="geometry" />
        </mxCell>
        <mxCell id="9l0HJUpUsv7TC3UWWbOg-67" value="&lt;b style=&quot;font-size: 10px;&quot;&gt;&lt;font style=&quot;font-size: 10px;&quot;&gt;Bit&lt;/font&gt;&lt;/b&gt;" style="text;html=1;align=center;verticalAlign=middle;whiteSpace=wrap;rounded=0;fontColor=#A1A1A1;fontSize=10;" parent="9l0HJUpUsv7TC3UWWbOg-2" vertex="1">
          <mxGeometry x="320" y="293" width="62" height="30" as="geometry" />
        </mxCell>
        <mxCell id="9l0HJUpUsv7TC3UWWbOg-68" value="&lt;b style=&quot;font-size: 10px;&quot;&gt;&lt;font style=&quot;font-size: 10px;&quot;&gt;Bit&lt;/font&gt;&lt;/b&gt;" style="text;html=1;align=center;verticalAlign=middle;whiteSpace=wrap;rounded=0;fontColor=#A1A1A1;fontSize=10;" parent="9l0HJUpUsv7TC3UWWbOg-2" vertex="1">
          <mxGeometry x="64" y="294" width="62" height="30" as="geometry" />
        </mxCell>
        <mxCell id="9l0HJUpUsv7TC3UWWbOg-71" value="&lt;b&gt;&lt;font style=&quot;font-size: 45px;&quot;&gt;.&lt;/font&gt;&lt;/b&gt;" style="text;html=1;align=center;verticalAlign=middle;whiteSpace=wrap;rounded=0;fontColor=#4D4D4D;" parent="9l0HJUpUsv7TC3UWWbOg-2" vertex="1">
          <mxGeometry x="789" y="260" width="51.5" height="30" as="geometry" />
        </mxCell>
        <mxCell id="9l0HJUpUsv7TC3UWWbOg-72" value="&lt;b&gt;&lt;font style=&quot;font-size: 45px;&quot;&gt;.&lt;/font&gt;&lt;/b&gt;" style="text;html=1;align=center;verticalAlign=middle;whiteSpace=wrap;rounded=0;fontColor=#4D4D4D;" parent="9l0HJUpUsv7TC3UWWbOg-2" vertex="1">
          <mxGeometry x="561" y="260" width="51.5" height="30" as="geometry" />
        </mxCell>
        <mxCell id="9l0HJUpUsv7TC3UWWbOg-73" value="&lt;b&gt;&lt;font style=&quot;font-size: 45px;&quot;&gt;.&lt;/font&gt;&lt;/b&gt;" style="text;html=1;align=center;verticalAlign=middle;whiteSpace=wrap;rounded=0;fontColor=#4D4D4D;" parent="9l0HJUpUsv7TC3UWWbOg-2" vertex="1">
          <mxGeometry x="319" y="260" width="51.5" height="30" as="geometry" />
        </mxCell>
        <mxCell id="9l0HJUpUsv7TC3UWWbOg-6" value="&lt;b&gt;&lt;font style=&quot;font-size: 36px;&quot;&gt;IPv4 Address&lt;/font&gt;&lt;/b&gt;" style="text;html=1;align=center;verticalAlign=middle;whiteSpace=wrap;rounded=0;fontColor=#4D4D4D;" parent="1" vertex="1">
          <mxGeometry x="325" y="113" width="450" height="30" as="geometry" />
        </mxCell>
        <mxCell id="9l0HJUpUsv7TC3UWWbOg-1" value="" style="outlineConnect=0;dashed=0;verticalLabelPosition=bottom;verticalAlign=top;align=center;html=1;shape=mxgraph.aws3.vpc;fillColor=#F58536;gradientColor=none;" parent="1" vertex="1">
          <mxGeometry x="1025" y="106" width="67.5" height="81" as="geometry" />
        </mxCell>
      </root>
    </mxGraphModel>
  </diagram>
</mxfile>
